<?xml version="1.0" encoding="UTF-8" standalone="no"?>
<svg
   id="flag-icons-gu"
   viewBox="0 0 640 480"
   version="1.1"
   sodipodi:docname="bq.svg"
   xml:space="preserve"
   inkscape:version="1.3.2 (091e20e, 2023-11-25, custom)"
   xmlns:inkscape="http://www.inkscape.org/namespaces/inkscape"
   xmlns:sodipodi="http://sodipodi.sourceforge.net/DTD/sodipodi-0.dtd"
   xmlns="http://www.w3.org/2000/svg"
   xmlns:svg="http://www.w3.org/2000/svg"><defs
     id="defs17"><clipPath
       clipPathUnits="userSpaceOnUse"
       id="clipPath18"><path
         fill="#be0027"
         fill-rule="evenodd"
         d="M -2.2e-6,2.66e-6 H 640 V 480 H -2.2e-6 Z"
         id="path18" /></clipPath></defs><sodipodi:namedview
     id="namedview17"
     pagecolor="#ffffff"
     bordercolor="#000000"
     borderopacity="0.25"
     inkscape:showpageshadow="2"
     inkscape:pageopacity="0.0"
     inkscape:pagecheckerboard="0"
     inkscape:deskcolor="#d1d1d1"
     inkscape:zoom="0.20234375"
     inkscape:cx="187.79923"
     inkscape:cy="279.2278"
     inkscape:window-width="1920"
     inkscape:window-height="991"
     inkscape:window-x="-9"
     inkscape:window-y="-9"
     inkscape:window-maximized="1"
     inkscape:current-layer="flag-icons-gu" /><rect
     style="fill:#ffffff;stroke-width:45.3543;paint-order:stroke fill markers"
     id="rect33"
     width="640"
     height="480"
     x="0"
     y="0" /><path
     style="opacity:1;fill:#002c88;stroke-width:45.3543;paint-order:stroke fill markers;fill-opacity:1"
     d="M 0,480 V 465.59842 L 640,38.768017 V 480 Z"
     id="path33" /><path
     style="opacity:1;fill:#ffd800;fill-opacity:1;stroke-width:45.3543;paint-order:stroke fill markers"
     d="M 0,0 V 184.99442 L 278.03766,0 Z"
     id="path34" /><path
     id="path35-0"
     style="opacity:1;fill:#000000;fill-opacity:1;stroke-width:60.7287;paint-order:stroke fill markers"
     d="M 178.16602 86.916016 L 168.70312 103.30859 A 104.00433 104.00433 0 0 0 74.71875 197.00781 L 58.017578 206.51367 L 74.708984 216.15039 A 104.00433 104.00433 0 0 0 168.5918 309.97461 L 178.0332 326.56445 L 187.47656 310.20508 A 104.00433 104.00433 0 0 0 281.5957 216.04883 L 297.88477 206.77734 L 281.60547 197.37891 A 104.00433 104.00433 0 0 0 187.36719 103.07812 L 178.16602 86.916016 z M 178.0332 116.80664 A 89.840459 89.840459 0 0 1 267.87305 206.64648 A 89.840459 89.840459 0 0 1 178.0332 296.48633 A 89.840459 89.840459 0 0 1 88.193359 206.64648 A 89.840459 89.840459 0 0 1 178.0332 116.80664 z " /><path
     id="path36"
     style="opacity:1;fill:#d6002e;fill-opacity:1;stroke-width:52.6901;paint-order:stroke fill markers"
     inkscape:transform-center-y="-16.635822"
     d="m 178.04297,138.52877 -19.20883,33.2713 h -38.4198 l 19.20883,33.2713 -19.20883,33.27129 h 38.4198 l 19.20883,33.2713 19.20882,-33.2713 h 38.4198 l -19.20881,-33.27129 19.20881,-33.2713 h -38.4198 z"
     inkscape:transform-center-x="2.3989892e-06" /></svg>
