<?xml version="1.0" encoding="UTF-8" standalone="no"?>
<svg
   id="flag-icons-gu"
   viewBox="0 0 640 480"
   version="1.1"
   sodipodi:docname="gf.svg"
   xml:space="preserve"
   inkscape:version="1.3.2 (091e20e, 2023-11-25, custom)"
   xmlns:inkscape="http://www.inkscape.org/namespaces/inkscape"
   xmlns:sodipodi="http://sodipodi.sourceforge.net/DTD/sodipodi-0.dtd"
   xmlns="http://www.w3.org/2000/svg"
   xmlns:svg="http://www.w3.org/2000/svg"><defs
     id="defs17"><clipPath
       clipPathUnits="userSpaceOnUse"
       id="clipPath18"><path
         fill="#be0027"
         fill-rule="evenodd"
         d="M -2.2e-6,2.66e-6 H 640 V 480 H -2.2e-6 Z"
         id="path18" /></clipPath></defs><sodipodi:namedview
     id="namedview17"
     pagecolor="#ffffff"
     bordercolor="#000000"
     borderopacity="0.25"
     inkscape:showpageshadow="2"
     inkscape:pageopacity="0.0"
     inkscape:pagecheckerboard="0"
     inkscape:deskcolor="#d1d1d1"
     inkscape:zoom="0.4046875"
     inkscape:cx="375.59846"
     inkscape:cy="-38.301158"
     inkscape:window-width="1920"
     inkscape:window-height="991"
     inkscape:window-x="-9"
     inkscape:window-y="-9"
     inkscape:window-maximized="1"
     inkscape:current-layer="flag-icons-gu" /><rect
     style="fill:#fcdd09;stroke-width:45.3543;paint-order:stroke fill markers;fill-opacity:1"
     id="rect33"
     width="640"
     height="480"
     x="0"
     y="0" /><path
     style="opacity:1;fill:#078930;fill-opacity:1;stroke-width:45.3543;paint-order:stroke fill markers"
     d="M 0,0 640,480 V 0 Z"
     id="path36" /><path
     style="fill:#da121a;fill-opacity:1;stroke-width:0.353628"
     d="m 274.7927,309.17001 c 0.10656,-0.28744 1.65898,-5.05792 3.45,-10.60106 1.79101,-5.54312 4.34757,-13.42022 5.68122,-17.50462 6.44708,-19.74446 7.78686,-23.94238 7.78686,-24.39821 0,-0.27099 -4.33636,-3.63868 -9.63638,-7.48374 -5.30001,-3.84506 -13.69429,-9.94758 -18.65392,-13.56116 -4.95964,-3.6136 -10.76372,-7.83653 -12.89792,-9.38429 l -3.88039,-2.81412 28.07454,-0.17682 28.07453,-0.17682 0.79832,-2.4754 c 0.43908,-1.36146 1.9907,-6.13546 3.44805,-10.60886 4.30062,-13.20107 10.35893,-31.90318 11.59855,-35.80494 0.63338,-1.99359 1.23938,-3.62408 1.34668,-3.62334 0.17152,10e-4 3.837,11.14217 14.3102,43.495 l 2.91914,9.01754 28.07281,0.17682 28.07283,0.17682 -5.11697,3.73589 c -2.81432,2.05472 -12.95427,9.42357 -22.5332,16.37522 -9.57892,6.95165 -17.41623,12.86356 -17.41623,13.13758 0,0.27402 1.17964,4.12403 2.62143,8.5556 1.44181,4.43156 4.64258,14.26356 7.11282,21.84892 6.3055,19.36201 7.21937,22.24026 7.09966,22.35996 -0.058,0.058 -0.534,-0.23176 -1.05786,-0.64385 -0.52386,-0.41207 -2.09971,-1.57869 -3.50187,-2.59247 -7.13238,-5.15683 -22.57085,-16.36872 -24.12075,-17.51722 -7.69957,-5.70553 -16.10486,-11.68486 -16.42574,-11.68486 -0.36498,0 -6.0766,4.07417 -21.05892,15.02154 -3.50093,2.55807 -7.3997,5.39341 -8.66391,6.30075 -2.88553,2.07095 -11.62482,8.39542 -13.94871,10.09443 -0.96168,0.70309 -1.66136,1.04315 -1.55487,0.75571 z"
     id="path42" /></svg>
