<?xml version="1.0" encoding="UTF-8" standalone="no"?>
<svg
   id="flag-icons-gu"
   viewBox="0 0 640 480"
   version="1.1"
   sodipodi:docname="gp.svg"
   xml:space="preserve"
   inkscape:version="1.3.2 (091e20e, 2023-11-25, custom)"
   xmlns:inkscape="http://www.inkscape.org/namespaces/inkscape"
   xmlns:sodipodi="http://sodipodi.sourceforge.net/DTD/sodipodi-0.dtd"
   xmlns="http://www.w3.org/2000/svg"
   xmlns:svg="http://www.w3.org/2000/svg"><defs
     id="defs17"><clipPath
       clipPathUnits="userSpaceOnUse"
       id="clipPath18"><path
         fill="#be0027"
         fill-rule="evenodd"
         d="M -2.2e-6,2.66e-6 H 640 V 480 H -2.2e-6 Z"
         id="path18" /></clipPath></defs><sodipodi:namedview
     id="namedview17"
     pagecolor="#ffffff"
     bordercolor="#000000"
     borderopacity="0.25"
     inkscape:showpageshadow="2"
     inkscape:pageopacity="0.0"
     inkscape:pagecheckerboard="0"
     inkscape:deskcolor="#d1d1d1"
     inkscape:zoom="0.57231455"
     inkscape:cx="588.83703"
     inkscape:cy="275.19831"
     inkscape:window-width="1920"
     inkscape:window-height="991"
     inkscape:window-x="-9"
     inkscape:window-y="-9"
     inkscape:window-maximized="1"
     inkscape:current-layer="flag-icons-gu" /><rect
     style="fill:#da121a;stroke-width:45.3543;paint-order:stroke fill markers;fill-opacity:1"
     id="rect33"
     width="640"
     height="480"
     x="0"
     y="0" /><path
     style="fill:#fcdd09;fill-opacity:1;stroke-width:0.392342"
     d="m 105.77673,317.36019 c 0.11822,-0.3189 1.84059,-5.61163 3.82769,-11.76161 1.98708,-6.14996 4.82352,-14.88941 6.30317,-19.42095 7.15288,-21.906 8.63933,-26.56349 8.63933,-27.06922 0,-0.30065 -4.81108,-4.03702 -10.69133,-8.30302 -5.88023,-4.266 -15.19348,-11.0366 -20.69606,-15.04578 -5.5026,-4.0092 -11.94209,-8.69444 -14.30993,-10.41164 l -4.305199,-3.1222 31.148019,-0.19617 31.148,-0.19618 0.88572,-2.7464 c 0.48715,-1.5105 2.20863,-6.80714 3.82553,-11.77027 4.77143,-14.64626 11.49298,-35.3958 12.8683,-39.7247 0.70272,-2.21184 1.37507,-4.02083 1.49411,-4.02001 0.1903,0.001 4.25706,12.36196 15.87682,48.25664 l 3.23871,10.00474 31.1461,0.19618 31.14612,0.19617 -5.67716,4.14488 c -3.12241,2.27966 -14.37244,10.45522 -25.00003,18.16791 -10.62758,7.71268 -19.32288,14.2718 -19.32288,14.57582 0,0.30402 1.30878,4.57551 2.90841,9.49223 1.59965,4.91671 5.15083,15.82507 7.8915,24.24084 6.9958,21.48168 8.00972,24.67503 7.8769,24.80783 -0.0644,0.0644 -0.59246,-0.25713 -1.17367,-0.71433 -0.58121,-0.45719 -2.32958,-1.75152 -3.88524,-2.87629 -7.9132,-5.72137 -25.0418,-18.16069 -26.76138,-19.43492 -8.54249,-6.33015 -17.86795,-12.96407 -18.22396,-12.96407 -0.40493,0 -6.74184,4.52019 -23.36435,16.66603 -3.8842,2.83812 -8.20979,5.98386 -9.6124,6.99053 -3.20143,2.29767 -12.89745,9.31451 -15.47575,11.19952 -1.06696,0.78006 -1.84324,1.15735 -1.72509,0.83844 z"
     id="path42" /><rect
     style="opacity:1;fill:#078930;fill-opacity:1;stroke-width:450.052;paint-order:stroke fill markers"
     id="rect42"
     width="640"
     height="60.154438"
     x="0"
     y="419.84558" /><rect
     style="fill:#ffffff;fill-opacity:1;stroke-width:284.364;paint-order:stroke fill markers"
     id="rect42-2"
     width="640"
     height="24.015442"
     x="0"
     y="395.83014" /><rect
     style="fill:#078930;fill-opacity:1;stroke-width:450.052;paint-order:stroke fill markers"
     id="rect42-4"
     width="640"
     height="60.154438"
     x="-640"
     y="-60.154449"
     transform="scale(-1)" /><rect
     style="fill:#ffffff;fill-opacity:1;stroke-width:284.364;paint-order:stroke fill markers"
     id="rect42-2-8"
     width="640"
     height="24.015442"
     x="-640"
     y="-84.169891"
     transform="scale(-1)" /></svg>
